<?xml version="1.0" encoding="UTF-8"?> <svg xmlns="http://www.w3.org/2000/svg" id="_Слой_1" data-name="Слой_1" viewBox="0 0 188.43 52.55"><g><path d="M60.97,29.75c1.79,0,3.4.39,4.83,1.18,1.43.78,2.57,2.02,3.42,3.7.85,1.68,1.28,3.86,1.28,6.55s-.43,4.87-1.28,6.53c-.85,1.67-2,2.89-3.42,3.67-1.43.78-3.04,1.18-4.83,1.18s-3.37-.39-4.81-1.18c-1.44-.78-2.59-2.01-3.44-3.67s-1.28-3.84-1.28-6.53.43-4.87,1.28-6.55,2-2.91,3.44-3.7c1.44-.78,3.04-1.18,4.81-1.18ZM60.97,30.59c-1.6,0-2.91.83-3.93,2.48-1.02,1.65-1.53,4.35-1.53,8.11s.51,6.45,1.53,8.08c1.02,1.64,2.33,2.46,3.93,2.46s2.91-.82,3.93-2.46c1.02-1.64,1.53-4.33,1.53-8.08s-.51-6.45-1.53-8.11c-1.02-1.65-2.33-2.48-3.93-2.48Z"></path><path d="M84.19,29.75c.9,0,1.76.11,2.6.34.84.22,1.6.56,2.27,1.01.64.42,1.13.9,1.47,1.45.34.55.5,1.14.5,1.79,0,.76-.21,1.34-.63,1.74s-.95.61-1.6.61-1.16-.18-1.62-.55c-.46-.36-.69-.88-.69-1.55s.17-1.16.52-1.55c.35-.39.76-.64,1.24-.76-.28-.5-.78-.92-1.49-1.26s-1.48-.5-2.29-.5c-.7,0-1.4.17-2.1.5-.7.34-1.34.89-1.93,1.66-.59.77-1.06,1.82-1.43,3.15-.36,1.33-.55,2.99-.55,4.98,0,2.46.28,4.42.84,5.88.56,1.46,1.29,2.5,2.2,3.13s1.91.95,3,.95,2.2-.32,3.32-.97c1.12-.64,2.04-1.76,2.77-3.36l.8.29c-.28.9-.74,1.8-1.39,2.71-.64.91-1.48,1.66-2.52,2.25-1.04.59-2.31.88-3.82.88-1.74,0-3.3-.45-4.7-1.34s-2.51-2.18-3.34-3.84-1.24-3.65-1.24-5.94.41-4.32,1.24-6.07,1.98-3.12,3.47-4.12c1.48-.99,3.18-1.49,5.08-1.49Z"></path><path d="M99.73,52.26c-1.82,0-3.14-.46-3.97-1.37-.83-.91-1.24-2.12-1.24-3.63,0-1.18.29-2.15.86-2.92.57-.77,1.31-1.4,2.21-1.89.9-.49,1.84-.91,2.83-1.26.99-.35,1.94-.69,2.83-1.03.9-.34,1.63-.71,2.21-1.13.57-.42.86-.95.86-1.6v-2.6c0-1.18-.18-2.07-.53-2.69-.35-.62-.82-1.03-1.41-1.24s-1.25-.32-1.97-.32-1.45.1-2.25.29c-.8.2-1.44.6-1.91,1.22.53.11.99.39,1.39.84.39.45.59,1.02.59,1.72s-.22,1.25-.67,1.66-1.02.61-1.72.61c-.81,0-1.41-.26-1.79-.78-.38-.52-.57-1.1-.57-1.74,0-.73.18-1.32.55-1.76.36-.45.83-.87,1.39-1.26.64-.45,1.48-.83,2.5-1.15,1.02-.32,2.18-.48,3.46-.48,1.15,0,2.13.13,2.94.4.81.27,1.48.65,2.02,1.15.73.67,1.2,1.49,1.43,2.46.22.97.34,2.12.34,3.46v11.68c0,.67.1,1.17.29,1.49.2.32.53.48,1.01.48.39,0,.73-.08,1.03-.25s.58-.38.86-.63l.46.71c-.59.45-1.15.82-1.68,1.11-.53.29-1.25.44-2.14.44-1.46,0-2.42-.38-2.9-1.13-.48-.76-.71-1.62-.71-2.6-.9,1.48-1.91,2.48-3.05,2.98-1.13.5-2.32.76-3.55.76ZM101.58,50.58c.84,0,1.67-.25,2.48-.74.81-.49,1.57-1.31,2.27-2.46v-8.23c-.42.62-1.07,1.11-1.95,1.47-.88.36-1.79.76-2.73,1.2-.94.43-1.74,1.02-2.42,1.76-.67.74-1.01,1.8-1.01,3.17,0,1.29.32,2.25.97,2.88.64.63,1.44.95,2.39.95Z"></path><path d="M121.78,23.36v7.01h6.22v.84h-6.22v16.25c0,1.32.24,2.24.71,2.77.48.53,1.13.8,1.97.8s1.57-.34,2.18-1.03c.62-.69,1.15-1.84,1.6-3.46l.84.21c-.28,1.62-.83,3-1.66,4.12-.83,1.12-2.09,1.68-3.8,1.68-.95,0-1.74-.12-2.35-.36-.62-.24-1.16-.58-1.64-1.03-.62-.64-1.04-1.41-1.28-2.31s-.36-2.09-.36-3.57v-14.07h-4.03v-.84h4.03v-6.43c.7-.03,1.37-.08,2.02-.17.64-.08,1.23-.22,1.76-.42Z"></path><path d="M136.86,29.87v18.19c0,1.18.24,1.97.73,2.39s1.31.63,2.46.63v.88c-.48-.03-1.2-.06-2.16-.11s-1.94-.06-2.92-.06-1.92.02-2.9.06c-.98.04-1.71.08-2.18.11v-.88c1.15,0,1.97-.21,2.46-.63s.74-1.22.74-2.39v-13.15c0-1.26-.22-2.19-.67-2.79-.45-.6-1.29-.9-2.52-.9v-.88c.9.08,1.76.13,2.6.13s1.59-.05,2.33-.15c.74-.1,1.42-.25,2.04-.44ZM134.67,19.84c.73,0,1.36.27,1.89.8.53.53.8,1.16.8,1.89s-.27,1.36-.8,1.89-1.16.8-1.89.8-1.36-.27-1.89-.8c-.53-.53-.8-1.16-.8-1.89s.27-1.36.8-1.89,1.16-.8,1.89-.8Z"></path><path d="M152.48,29.75c1.79,0,3.4.39,4.83,1.18,1.43.78,2.57,2.02,3.42,3.7s1.28,3.86,1.28,6.55-.43,4.87-1.28,6.53-2,2.89-3.42,3.67-3.04,1.18-4.83,1.18-3.37-.39-4.81-1.18c-1.44-.78-2.59-2.01-3.44-3.67-.85-1.67-1.28-3.84-1.28-6.53s.43-4.87,1.28-6.55c.85-1.68,2-2.91,3.44-3.7,1.44-.78,3.04-1.18,4.81-1.18ZM152.48,30.59c-1.6,0-2.91.83-3.93,2.48-1.02,1.65-1.53,4.35-1.53,8.11s.51,6.45,1.53,8.08c1.02,1.64,2.33,2.46,3.93,2.46s2.9-.82,3.93-2.46,1.53-4.33,1.53-8.08-.51-6.45-1.53-8.11-2.33-2.48-3.93-2.48Z"></path><path d="M179.32,29.75c1.06,0,1.95.14,2.67.42.71.28,1.31.67,1.79,1.18.53.56.91,1.26,1.13,2.1.22.84.34,1.97.34,3.4v11.21c0,1.18.25,1.97.74,2.39.49.42,1.31.63,2.46.63v.88c-.48-.03-1.2-.06-2.18-.11s-1.93-.06-2.86-.06-1.83.02-2.71.06-1.55.08-2,.11v-.88c1.01,0,1.72-.21,2.14-.63s.63-1.22.63-2.39v-12.14c0-.87-.07-1.67-.21-2.39-.14-.73-.46-1.32-.94-1.76-.49-.45-1.24-.67-2.25-.67-1.76,0-3.19.74-4.26,2.21s-1.62,3.28-1.62,5.44v9.32c0,1.18.21,1.97.63,2.39s1.13.63,2.14.63v.88c-.45-.03-1.11-.06-2-.11s-1.79-.06-2.71-.06-1.88.02-2.86.06c-.98.04-1.71.08-2.18.11v-.88c1.15,0,1.97-.21,2.46-.63s.74-1.22.74-2.39v-13.15c0-1.26-.22-2.19-.67-2.79-.45-.6-1.29-.9-2.52-.9v-.88c.9.08,1.76.13,2.6.13s1.59-.05,2.33-.15c.74-.1,1.42-.25,2.04-.44v4.96c.73-1.9,1.74-3.23,3.04-3.97,1.3-.74,2.67-1.11,4.09-1.11Z"></path></g><path d="M32.2,27.04c-2.55.41-5.05.62-7.49.62-4.49,0-8.29-1-11.42-3.01-3.67-2.35-5.5-5.64-5.5-9.88,0-4.72,1.93-8.43,5.78-11.14,3.42-2.42,7.58-3.62,12.48-3.62,7.45,0,13.87,2.96,19.24,8.89,5.51-4.76,9.65-7.14,12.41-7.14,2.37,0,3.55,1.14,3.55,3.42,0,3.92-2.95,8.06-8.85,12.41-4.15,3.05-8.82,5.66-14.01,7.83-4.63,9.25-9.81,16.13-15.55,20.64,5.13,1.96,9.65,2.94,13.57,2.94s7.77-1.96,11.83-5.88c.41-.39.77-.75,1.09-1.09.73-.75,1.23-1.13,1.5-1.13.09.02.14.09.14.21,0,.62-.93,1.78-2.8,3.49-5.31,4.85-9.97,7.28-13.98,7.28-2.78,0-7.54-1.25-14.29-3.76-4.26,2.42-8.18,3.62-11.76,3.62-1.96,0-3.66-.28-5.09-.85-2.03-.8-3.04-2.03-3.04-3.69,0-2.85,2.36-4.27,7.08-4.27,2.94,0,7.39.84,13.36,2.53,2.3-1.64,6.22-7.77,11.76-18.39ZM18.01,47.37c-5.26-1.91-9.14-2.87-11.62-2.87-3.28,0-4.92.93-4.92,2.8,0,1.21.88,2.14,2.63,2.8,1.28.48,2.64.72,4.1.72,3.44,0,6.71-1.15,9.81-3.45ZM33.84,23.93c3.49-5.83,7.05-10.6,10.7-14.29C39.39,3.81,33.15.89,25.84.89c-4.31,0-8.01,1.01-11.11,3.04-3.6,2.35-5.4,5.56-5.4,9.64,0,3.81,2.06,6.71,6.19,8.72,3.24,1.57,6.96,2.36,11.18,2.36,1.89,0,4.27-.24,7.14-.72ZM39.72,22.59c4.53-1.66,8.69-3.79,12.49-6.39,5.32-3.65,7.98-7.18,7.98-10.6,0-1.82-.91-2.73-2.73-2.73-2.91,0-6.48,2.59-10.71,7.76,1.69,2.28,2.53,3.73,2.53,4.34,0,.27-.07.41-.21.41-.18,0-.67-.57-1.47-1.71-.46-.64-.95-1.34-1.47-2.12-2.62,3.62-4.76,7.3-6.43,11.04Z"></path></svg> 